<svg width="40" height="40" viewBox="0 0 40 40" fill="none" xmlns="http://www.w3.org/2000/svg">
<path d="M12.4999 3.33335C9.51659 5.25001 7.49992 8.63335 7.49992 12.5C7.49992 16.3667 9.51659 19.75 12.5499 21.6667C7.43325 21.6667 3.33325 17.5667 3.33325 12.5C3.33325 10.0689 4.29902 7.73728 6.01811 6.0182C7.73719 4.29912 10.0688 3.33335 12.4999 3.33335M31.7833 5.83335L34.1666 8.21668L8.21659 34.1667L5.83325 31.7833L31.7833 5.83335ZM21.4833 9.88335L19.0166 8.33335L16.6166 10L17.3166 7.16668L14.9999 5.40001L17.9166 5.20001L18.8833 2.45001L19.9999 5.16668L22.8833 5.21668L20.6333 7.10001L21.4833 9.88335ZM15.9833 15.9L14.0499 14.6833L12.1833 15.9833L12.7499 13.7833L10.9333 12.4L13.1999 12.25L13.9499 10.1L14.7999 12.2167L17.0666 12.2667L15.3166 13.7167L15.9833 15.9M31.6666 22.5C31.6666 24.9312 30.7008 27.2627 28.9817 28.9818C27.2626 30.7009 24.9311 31.6667 22.4999 31.6667C20.4666 31.6667 18.5833 31 17.0666 29.8833L29.8833 17.0667C30.9999 18.5833 31.6666 20.4667 31.6666 22.5M24.3333 33.4667L28.9499 31.55L28.5499 37.1333L24.3333 33.4667M31.5499 28.9667L33.4666 24.35L37.1333 28.5833L31.5499 28.9667M33.4666 20.7L31.5666 16.0667L37.1333 16.4667L33.4666 20.7ZM16.0499 31.55L20.6666 33.4667L16.4499 37.1167L16.0499 31.55Z" fill="#E9F4FA"/>
</svg>
