<svg width="40" height="40" viewBox="0 0 40 40" fill="none" xmlns="http://www.w3.org/2000/svg">
<path d="M12.5 3.33335C9.51671 5.25001 7.50004 8.63335 7.50004 12.5C7.50004 16.3667 9.51671 19.75 12.55 21.6667C7.43337 21.6667 3.33337 17.5667 3.33337 12.5C3.33337 10.0689 4.29915 7.73728 6.01823 6.0182C7.73731 4.29912 10.0689 3.33335 12.5 3.33335M31.7834 5.83335L34.1667 8.21668L8.21671 34.1667L5.83337 31.7833L31.7834 5.83335ZM21.4834 9.88335L19.0167 8.33335L16.6167 10L17.3167 7.16668L15 5.40001L17.9167 5.20001L18.8834 2.45001L20 5.16668L22.8834 5.21668L20.6334 7.10001L21.4834 9.88335ZM15.9834 15.9L14.05 14.6833L12.1834 15.9833L12.75 13.7833L10.9334 12.4L13.2 12.25L13.95 10.1L14.8 12.2167L17.0667 12.2667L15.3167 13.7167L15.9834 15.9M31.6667 22.5C31.6667 24.9312 30.7009 27.2627 28.9819 28.9818C27.2628 30.7009 24.9312 31.6667 22.5 31.6667C20.4667 31.6667 18.5834 31 17.0667 29.8833L29.8834 17.0667C31 18.5833 31.6667 20.4667 31.6667 22.5M24.3334 33.4667L28.95 31.55L28.55 37.1333L24.3334 33.4667M31.55 28.9667L33.4667 24.35L37.1334 28.5833L31.55 28.9667M33.4667 20.7L31.5667 16.0667L37.1334 16.4667L33.4667 20.7ZM16.05 31.55L20.6667 33.4667L16.45 37.1167L16.05 31.55Z" fill="#699BF7"/>
</svg>
