<svg width="484" height="333" viewBox="0 0 484 333" fill="none" xmlns="http://www.w3.org/2000/svg">
<path d="M457.614 216.589L63.681 216.589L63.6809 -5.02711e-06L457.614 216.589Z" fill="#D9D9D9"/>
<rect x="63.4483" y="184.205" width="32.7475" height="32.7475" fill="#A5A3A3"/>
<rect x="75.7286" y="196.485" width="8.18689" height="8.18689" fill="#D9D9D9"/>
<path d="M32.1681 116.483V111.043C32.1681 110.627 32.0835 110.265 31.9142 109.959C31.7514 109.647 31.504 109.406 31.172 109.237C30.84 109.067 30.4298 108.983 29.9415 108.983C29.4858 108.983 29.0854 109.061 28.7404 109.217C28.4018 109.373 28.1349 109.578 27.9396 109.832C27.7508 110.086 27.6564 110.36 27.6564 110.653H25.8497C25.8497 110.275 25.9474 109.901 26.1427 109.53C26.338 109.159 26.618 108.823 26.9825 108.524C27.3536 108.218 27.7963 107.977 28.3107 107.801C28.8315 107.619 29.4109 107.528 30.049 107.528C30.8172 107.528 31.4943 107.658 32.0802 107.918C32.6726 108.179 33.1349 108.573 33.4669 109.1C33.8055 109.621 33.9747 110.275 33.9747 111.063V115.985C33.9747 116.336 34.004 116.711 34.0626 117.108C34.1277 117.505 34.2221 117.847 34.3458 118.133V118.289H32.4611C32.3699 118.081 32.2983 117.804 32.2462 117.459C32.1941 117.108 32.1681 116.782 32.1681 116.483ZM32.4806 111.883L32.5001 113.153H30.674C30.1596 113.153 29.7006 113.195 29.297 113.28C28.8934 113.358 28.5548 113.478 28.2814 113.641C28.0079 113.804 27.7996 114.009 27.6564 114.256C27.5131 114.497 27.4415 114.78 27.4415 115.106C27.4415 115.438 27.5164 115.741 27.6661 116.014C27.8159 116.287 28.0405 116.506 28.34 116.668C28.646 116.825 29.0203 116.903 29.463 116.903C30.0164 116.903 30.5047 116.785 30.9279 116.551C31.351 116.317 31.6863 116.03 31.9337 115.692C32.1876 115.353 32.3243 115.024 32.3439 114.705L33.1154 115.575C33.0698 115.848 32.9461 116.151 32.7443 116.483C32.5424 116.815 32.2723 117.134 31.9337 117.44C31.6017 117.739 31.2045 117.99 30.7423 118.192C30.2866 118.387 29.7723 118.485 29.1993 118.485C28.4832 118.485 27.8549 118.345 27.3146 118.065C26.7807 117.785 26.3641 117.41 26.0646 116.942C25.7716 116.466 25.6251 115.936 25.6251 115.35C25.6251 114.784 25.7358 114.285 25.9572 113.856C26.1785 113.42 26.4975 113.058 26.9142 112.772C27.3309 112.479 27.8322 112.257 28.4181 112.108C29.004 111.958 29.6583 111.883 30.381 111.883H32.4806Z" fill="#4F95FF"/>
<path d="M230.745 43.3184C231.175 43.3184 231.572 43.2305 231.936 43.0547C232.301 42.8789 232.6 42.638 232.835 42.332C233.069 42.0195 233.203 41.6647 233.235 41.2676H234.954C234.921 41.8926 234.71 42.4753 234.319 43.0156C233.935 43.5495 233.43 43.9824 232.805 44.3145C232.18 44.64 231.494 44.8027 230.745 44.8027C229.951 44.8027 229.257 44.6628 228.665 44.3828C228.079 44.1029 227.591 43.7188 227.2 43.2305C226.816 42.7422 226.526 42.1823 226.331 41.5508C226.142 40.9128 226.048 40.2389 226.048 39.5293V39.1191C226.048 38.4095 226.142 37.7389 226.331 37.1074C226.526 36.4694 226.816 35.9062 227.2 35.418C227.591 34.9297 228.079 34.5456 228.665 34.2656C229.257 33.9857 229.951 33.8457 230.745 33.8457C231.572 33.8457 232.294 34.015 232.913 34.3535C233.531 34.6855 234.016 35.1413 234.368 35.7207C234.726 36.2936 234.921 36.9447 234.954 37.6738H233.235C233.203 37.2376 233.079 36.8438 232.864 36.4922C232.656 36.1406 232.369 35.8607 232.005 35.6523C231.647 35.4375 231.227 35.3301 230.745 35.3301C230.191 35.3301 229.726 35.4408 229.348 35.6621C228.977 35.877 228.681 36.1699 228.46 36.541C228.245 36.9056 228.089 37.3125 227.991 37.7617C227.9 38.2044 227.854 38.6569 227.854 39.1191V39.5293C227.854 39.9915 227.9 40.4473 227.991 40.8965C228.082 41.3457 228.235 41.7526 228.45 42.1172C228.671 42.4818 228.968 42.7747 229.339 42.9961C229.716 43.2109 230.185 43.3184 230.745 43.3184Z" fill="#4F95FF"/>
<path d="M234.693 240.42H236.51V253.369L236.354 255.42H234.693V240.42ZM243.649 250.049V250.254C243.649 251.022 243.557 251.735 243.375 252.392C243.193 253.043 242.926 253.61 242.574 254.092C242.223 254.573 241.793 254.948 241.285 255.215C240.777 255.482 240.195 255.615 239.537 255.615C238.867 255.615 238.277 255.501 237.77 255.273C237.268 255.039 236.845 254.704 236.5 254.267C236.155 253.831 235.878 253.304 235.67 252.685C235.468 252.067 235.328 251.37 235.25 250.596V249.697C235.328 248.916 235.468 248.216 235.67 247.597C235.878 246.979 236.155 246.452 236.5 246.015C236.845 245.573 237.268 245.237 237.77 245.01C238.271 244.775 238.854 244.658 239.518 244.658C240.182 244.658 240.771 244.788 241.285 245.049C241.8 245.303 242.229 245.667 242.574 246.142C242.926 246.618 243.193 247.187 243.375 247.851C243.557 248.509 243.649 249.241 243.649 250.049ZM241.832 250.254V250.049C241.832 249.521 241.783 249.027 241.686 248.564C241.588 248.096 241.432 247.685 241.217 247.334C241.002 246.976 240.719 246.696 240.367 246.494C240.016 246.286 239.583 246.181 239.068 246.181C238.613 246.181 238.216 246.26 237.877 246.416C237.545 246.572 237.262 246.784 237.027 247.051C236.793 247.311 236.601 247.61 236.451 247.949C236.308 248.281 236.201 248.626 236.129 248.984V251.338C236.233 251.793 236.402 252.233 236.637 252.656C236.878 253.073 237.197 253.415 237.594 253.681C237.998 253.948 238.496 254.082 239.088 254.082C239.576 254.082 239.993 253.984 240.338 253.789C240.69 253.587 240.973 253.31 241.188 252.959C241.409 252.607 241.572 252.2 241.676 251.738C241.78 251.276 241.832 250.781 241.832 250.254Z" fill="#4F95FF"/>
</svg>
